solid 
facet normal 0 0 1
 outer loop
  vertex 17.4949 25 1
  vertex -17.5051 25 1
  vertex -17.5051 8.00432 1
 endloop
endfacet
facet normal 0 -0 1
 outer loop
  vertex 17.4949 25 1
  vertex -17.5051 8.00432 1
  vertex -12.5051 8.00432 1
 endloop
endfacet
facet normal 0 0 1
 outer loop
  vertex 2.49485 8.00432 1
  vertex 17.4949 8.00432 1
  vertex 17.4949 25 1
 endloop
endfacet
facet normal 0 0 1
 outer loop
  vertex -2.50515 8.00432 1
  vertex 2.49485 8.00432 1
  vertex 17.4949 25 1
 endloop
endfacet
facet normal 0 -0 1
 outer loop
  vertex 17.4949 25 1
  vertex -12.5051 8.00432 1
  vertex -7.50515 8.00432 1
 endloop
endfacet
facet normal 0 0 1
 outer loop
  vertex -7.50515 8.00432 1
  vertex -2.50515 8.00432 1
  vertex 17.4949 25 1
 endloop
endfacet
endsolid 
