solid 
facet normal 0 0 1
 outer loop
  vertex -25 -25 1
  vertex -17.464 -25 1
  vertex -17.464 -7.99568 1
 endloop
endfacet
facet normal 0 0 1
 outer loop
  vertex -17.464 -7.99568 1
  vertex -17.464 -2.99568 1
  vertex -17.5051 3.00432 1
 endloop
endfacet
facet normal -0 0 1
 outer loop
  vertex -17.5051 8.00432 1
  vertex -17.5051 25 1
  vertex -25 25 1
 endloop
endfacet
facet normal 0 0 1
 outer loop
  vertex -25 -25 1
  vertex -17.464 -7.99568 1
  vertex -17.5051 3.00432 1
 endloop
endfacet
facet normal 0 0 1
 outer loop
  vertex -17.5051 3.00432 1
  vertex -17.5051 8.00432 1
  vertex -25 25 1
 endloop
endfacet
facet normal -0 0 1
 outer loop
  vertex -17.5051 3.00432 1
  vertex -25 25 1
  vertex -25 -25 1
 endloop
endfacet
endsolid 
