solid 
facet normal 0 0 1
 outer loop
  vertex -2.50515 -7.99568 1
  vertex -17.464 -7.99568 1
  vertex -17.464 -25 1
 endloop
endfacet
facet normal 0 0 1
 outer loop
  vertex -17.464 -25 1
  vertex 17.5333 -25 1
  vertex 17.5333 -7.99568 1
 endloop
endfacet
facet normal 0 0 1
 outer loop
  vertex 2.49485 -7.99568 1
  vertex -2.50515 -7.99568 1
  vertex -17.464 -25 1
 endloop
endfacet
facet normal -0 0 1
 outer loop
  vertex -17.464 -25 1
  vertex 17.5333 -7.99568 1
  vertex 2.49485 -7.99568 1
 endloop
endfacet
endsolid 
