solid 
facet normal 0 1 0
 outer loop
  vertex -2.50515 8.00432 4
  vertex -2.50515 8.00432 1
  vertex -7.50515 8.00432 1
 endloop
endfacet
facet normal -0 1 0
 outer loop
  vertex -12.5051 8.00432 1
  vertex -17.5051 8.00432 1
  vertex -17.5051 8.00432 13
 endloop
endfacet
facet normal 0 1 0
 outer loop
  vertex -2.50515 8.00432 4
  vertex -7.50515 8.00432 1
  vertex -12.5051 8.00432 1
 endloop
endfacet
facet normal 0 1 0
 outer loop
  vertex -2.50515 8.00432 7
  vertex -2.50515 8.00432 4
  vertex -12.5051 8.00432 1
 endloop
endfacet
facet normal 0 1 0
 outer loop
  vertex -12.5051 8.00432 1
  vertex -17.5051 8.00432 13
  vertex -2.50515 8.00432 13
 endloop
endfacet
facet normal 0 1 0
 outer loop
  vertex -2.50515 8.00432 10
  vertex -2.50515 8.00432 7
  vertex -12.5051 8.00432 1
 endloop
endfacet
facet normal 0 1 -0
 outer loop
  vertex -12.5051 8.00432 1
  vertex -2.50515 8.00432 13
  vertex -2.50515 8.00432 10
 endloop
endfacet
endsolid 
