solid 
facet normal 0 -1 0
 outer loop
  vertex 2.49485 -7.99568 4
  vertex 2.49485 -7.99568 1
  vertex 17.5333 -7.99568 1
 endloop
endfacet
facet normal 0 -1 0
 outer loop
  vertex 17.5333 -7.99568 1
  vertex 17.5333 -7.99568 13
  vertex 2.49485 -7.99568 13
 endloop
endfacet
facet normal 0 -1 0
 outer loop
  vertex 17.5333 -7.99568 1
  vertex 2.49485 -7.99568 13
  vertex 2.49485 -7.99568 10
 endloop
endfacet
facet normal 0 -1 0
 outer loop
  vertex 2.49485 -7.99568 7
  vertex 2.49485 -7.99568 4
  vertex 17.5333 -7.99568 1
 endloop
endfacet
facet normal 0 -1 0
 outer loop
  vertex 17.5333 -7.99568 1
  vertex 2.49485 -7.99568 10
  vertex 2.49485 -7.99568 7
 endloop
endfacet
endsolid 
