solid 
facet normal -0 -0 -1
 outer loop
  vertex -17.5051 3.00432 1
  vertex -17.5051 8.00432 1
  vertex -12.5051 8.00432 1
 endloop
endfacet
facet normal 0 0 -1
 outer loop
  vertex -7.50515 8.00432 1
  vertex -2.50515 8.00432 1
  vertex -2.50515 3.00432 1
 endloop
endfacet
facet normal -0 0 -1
 outer loop
  vertex -17.5051 3.00432 1
  vertex -12.5051 8.00432 1
  vertex -7.50515 8.00432 1
 endloop
endfacet
facet normal 0 0 -1
 outer loop
  vertex -7.50515 8.00432 1
  vertex -2.50515 3.00432 1
  vertex -17.5051 3.00432 1
 endloop
endfacet
endsolid 
